# xmcd
#
# Track frame offsets: 
#        150
#        21700
#        40475
#        58517
#        77180
#        98560
#        119625
#        136945
#        154417
#        181462
#        197782
#        216320
#        236290
#        260220
#        281567
#
# Disc length: 3968 seconds
#
# Revision: 4
# Processed by: cddbd v1.5.2PL0 Copyright (c) Steve Scherf et al.
# Submitted via: ExactAudioCopy v0.95a5
#
DISCID=e70f7e0f
DTITLE=Yashemabeth - k-Shema
DYEAR=1998
DGENRE=R&B
TTITLE0=Sweet Dreams
TTITLE1=The Best That I Can
TTITLE2=Only A Prayer Away
TTITLE3=In Me In You
TTITLE4=Baby You're Mine
TTITLE5=One Summer Night
TTITLE6=Ooh And I Link It
TTITLE7=Love's Desire
TTITLE8=Jermaine (Yours Truly )
TTITLE9=Peaches And Cream
TTITLE10=Glad You're Here With Me
TTITLE11=Never Miss Your Water
TTITLE12=I'm Gonna Find You
TTITLE13=Like To Have You
TTITLE14=Why'd You Go
EXTD=
EXTT0=
EXTT1=
EXTT2=
EXTT3=
EXTT4=
EXTT5=
EXTT6=
EXTT7=
EXTT8=
EXTT9=
EXTT10=
EXTT11=
EXTT12=
EXTT13=
EXTT14=
PLAYORDER=
